<?xml version="1.0" encoding="UTF-8"?>
<svg version="1.1" xmlns="http://www.w3.org/2000/svg" width="290" height="333">
<path d="M0 0 C0.79083984 0.69609375 0.79083984 0.69609375 1.59765625 1.40625 C1.59765625 2.06625 1.59765625 2.72625 1.59765625 3.40625 C2.2009375 3.68082031 2.80421875 3.95539062 3.42578125 4.23828125 C12.24943916 8.98337786 17.30854311 21.45911886 20.7734375 30.4609375 C23.74594591 41.08307655 22.87073829 52.47876716 22.59765625 63.40625 C23.28230957 63.24165283 23.96696289 63.07705566 24.67236328 62.9074707 C29.88633384 62.01410719 35.13619824 62.38439425 40.40771484 62.53833008 C42.45935615 62.59339305 44.51033903 62.62208665 46.5625 62.65039062 C59.56978961 63.01561994 59.56978961 63.01561994 64.59765625 67.40625 C69.18490264 74.57455176 69.61516484 81.78074034 70.28930664 90.11108398 C70.42155755 91.59577262 70.55524916 93.08033352 70.69026184 94.56477356 C71.0519052 98.58587193 71.39346354 102.60845141 71.7314446 106.63159823 C72.09188879 110.87995932 72.47110272 115.12664564 72.84825134 119.37355042 C73.56236336 127.44666823 74.25993672 135.52112538 74.95146316 143.59620577 C75.72799861 152.65540624 76.52194034 161.71305071 77.31787884 170.77056396 C78.29368475 181.87581459 79.26731988 192.98124049 80.22584534 204.08799744 C80.29361547 204.87257566 80.36138561 205.65715389 80.43120939 206.46550721 C80.69851614 209.56069425 80.96580016 212.65588221 81.23154938 215.75120342 C81.9427699 224.03490523 82.67620634 232.31557011 83.46456909 240.59231567 C83.60594814 242.09064433 83.74726548 243.58897881 83.88851833 245.08731937 C84.15052385 247.86485053 84.42017214 250.64148027 84.69468021 253.41779995 C86.13813244 268.67809721 87.3551878 282.27627353 77.08203125 294.76171875 C71.00866478 301.4903695 62.75953244 304.47317093 53.77636719 304.95214844 C51.62854683 304.99338561 49.48024607 305.01320616 47.33203125 305.015625 C46.1169841 305.03225189 44.90193695 305.04887878 43.65007019 305.06600952 C40.26470296 305.1072163 36.88013684 305.13038049 33.49460983 305.14487457 C30.59198079 305.16025387 27.68956058 305.18986713 24.78704357 305.21913338 C14.43211792 305.32210597 4.07716449 305.36458004 -6.27819061 305.39656067 C-9.57480592 305.40678488 -12.87141752 305.41791646 -16.16802979 305.42907715 C-32.34346223 305.48222252 -48.5188692 305.51366598 -64.69438171 305.52784729 C-67.20834891 305.53011606 -69.72231583 305.53271014 -72.23628235 305.53562927 C-79.48647432 305.54391709 -86.73662717 305.54665022 -93.98682213 305.54082108 C-96.21724104 305.53966341 -98.44766149 305.54012664 -100.67807961 305.54233932 C-136.90825258 305.57257796 -136.90825258 305.57257796 -148.58203125 296.23828125 C-154.58675558 290.1948999 -158.05903199 282.34696708 -158.64761829 273.87642002 C-158.56020632 263.46744536 -157.89139356 253.17741141 -156.98120117 242.81030273 C-156.82788631 241.00656208 -156.67513718 239.20277326 -156.52290344 237.39894104 C-156.11193208 232.55188545 -155.69227955 227.70562085 -155.27027297 222.85951495 C-154.91752409 218.80105371 -154.56874923 214.74225445 -154.21982747 210.68346268 C-153.39677312 201.11189225 -152.56623193 191.54099139 -151.73120117 181.97045898 C-150.87113996 172.11123824 -150.02501803 162.2508885 -149.18543738 152.38990444 C-148.46185645 143.8979267 -147.72910977 135.40677285 -146.98913652 126.91620785 C-146.54822941 121.85570535 -146.11090963 116.79495751 -145.68266869 111.73336601 C-145.28035096 106.98234032 -144.86660405 102.23244614 -144.44408989 97.48317528 C-144.29123396 95.74328701 -144.14241034 94.00303894 -143.99796677 92.2624321 C-143.79981638 89.88241071 -143.586991 87.50413309 -143.37052917 85.12571716 C-143.2902542 84.09877114 -143.2902542 84.09877114 -143.20835751 83.05107874 C-142.55313116 76.20213874 -140.25100413 70.39751804 -135.40234375 65.40625 C-123.91041775 59.75117218 -107.79913278 62.58818778 -95.40234375 63.40625 C-95.42329102 62.82359375 -95.44423828 62.2409375 -95.46582031 61.640625 C-96.09444895 41.39719136 -94.17659839 23.83394102 -80.65234375 7.59375 C-58.58500417 -15.53451937 -26.13656457 -17.33937942 0 0 Z M-66.77734375 18.09375 C-76.05907626 28.07161245 -78.79336738 40.28011719 -78.52734375 53.46875 C-78.51832031 54.33435547 -78.50929688 55.19996094 -78.5 56.09179688 C-78.47674098 58.19673779 -78.44088383 60.30153342 -78.40234375 62.40625 C-75.3071794 63.95383217 -72.04378301 63.5358489 -68.64794922 63.51977539 C-67.84786438 63.51992142 -67.04777954 63.52006744 -66.22344971 63.5202179 C-63.57211622 63.5195198 -60.9208525 63.51173221 -58.26953125 63.50390625 C-56.43392983 63.5020417 -54.59832792 63.50061797 -52.76272583 63.49961853 C-47.9261132 63.49579623 -43.08953048 63.48596839 -38.25292969 63.47491455 C-33.31966558 63.46469426 -28.38639664 63.46011958 -23.453125 63.45507812 C-13.76951809 63.44434588 -4.0859334 63.42727289 5.59765625 63.40625 C5.63160738 60.5441695 5.65630113 57.68249842 5.67578125 54.8203125 C5.68625488 54.01730713 5.69672852 53.21430176 5.70751953 52.38696289 C5.77875839 38.40277551 1.45584521 27.84241179 -8.04296875 17.73828125 C-25.09040147 0.88841811 -49.34787074 2.19143082 -66.77734375 18.09375 Z M-110.40234375 97.40625 C-112.55652816 100.53629124 -112.76842492 103.53138632 -113.03515625 107.265625 C-113.11894531 108.38066406 -113.20273438 109.49570313 -113.2890625 110.64453125 C-113.40701172 112.38283203 -113.40701172 112.38283203 -113.52734375 114.15625 C-113.61371094 115.33058594 -113.70007813 116.50492188 -113.7890625 117.71484375 C-114.00101457 120.61152203 -114.20514702 123.50853598 -114.40234375 126.40625 C-105.91813336 126.59202525 -97.43477939 126.73396063 -88.94903469 126.82074738 C-85.0081772 126.86241259 -81.06871597 126.91887201 -77.12866211 127.00976562 C-73.32246871 127.0970166 -69.5176135 127.14458929 -65.7104969 127.16526794 C-64.26191201 127.17999321 -62.81339636 127.20875151 -61.36538506 127.25209045 C-53.26097048 127.70342471 -53.26097048 127.70342471 -46.0473938 124.64233398 C-44.17986218 122.55116228 -44.17986218 122.55116228 -42.78041077 120.32409668 C-40.41859439 117.03717257 -37.25838331 116.14448806 -33.40234375 115.40625 C-26.89001259 114.50366375 -21.81055325 115.6168243 -16.40234375 119.40625 C-10.78787811 125.31621384 -9.88859666 130.12717274 -10.0234375 138.13671875 C-10.75706693 144.46710882 -13.5872985 147.96162215 -18.46484375 151.84375 C-23.95500972 154.76405105 -29.37913912 155.22746593 -35.48828125 153.98046875 C-41.12531752 152.22024478 -43.91537701 149.01482069 -47.40234375 144.40625 C-49.25760953 142.12250608 -49.25760953 142.12250608 -52.14846802 142.16574097 C-53.3165097 142.17018219 -54.48455139 142.17462341 -55.68798828 142.17919922 C-56.33201599 142.17890717 -56.9760437 142.17861511 -57.6395874 142.17831421 C-59.77158002 142.17970926 -61.90322457 142.19527826 -64.03515625 142.2109375 C-65.51203216 142.21466702 -66.98891053 142.21751428 -68.46578979 142.21951294 C-72.35551773 142.22715426 -76.24509663 142.24680692 -80.13476562 142.2689209 C-84.10284407 142.28936865 -88.07094657 142.29851236 -92.0390625 142.30859375 C-99.82689091 142.33005244 -107.61459646 142.36419428 -115.40234375 142.40625 C-116.51837023 150.37515118 -117.60035069 158.30204738 -118.02734375 166.34375 C-118.06601563 167.03919922 -118.1046875 167.73464844 -118.14453125 168.45117188 C-118.23564382 170.10258719 -118.31985885 171.75438127 -118.40234375 173.40625 C-100.99499186 173.47073684 -83.58835394 173.46839463 -66.18096924 173.41546631 C-62.55926787 173.40663275 -58.93762868 173.40484861 -55.31591797 173.40478516 C-49.94477112 173.40176733 -44.57472508 173.3673506 -39.20391846 173.30758667 C-37.21810246 173.29008969 -35.23216694 173.28295726 -33.24627686 173.28640747 C-30.49121598 173.28917564 -27.73903176 173.25483673 -24.984375 173.2109375 C-24.18168686 173.2200264 -23.37899872 173.2291153 -22.55198669 173.23847961 C-19.58254353 173.16017566 -17.15733119 173.05199105 -14.83828735 171.06851196 C-13.60918509 169.57980769 -12.49842394 167.99544508 -11.40234375 166.40625 C-6.70318901 163.19916264 -1.41765599 161.66808061 4.26171875 161.95703125 C10.01035844 163.06253888 15.76410888 165.60944222 19.16015625 170.53125 C22.19978687 176.61051124 22.78989878 183.13285055 20.94921875 189.73046875 C18.7010148 194.77451607 15.42687321 197.79555962 10.59765625 200.40625 C4.61640962 202.39999888 -2.07668397 202.40533576 -7.83984375 199.71875 C-12.2787938 197.15886469 -14.60318722 193.60498479 -17.40234375 189.40625 C-19.2971327 188.9586015 -19.2971327 188.9586015 -21.50843811 189.03875732 C-22.36798599 189.03318817 -23.22753387 189.02761902 -24.11312866 189.0218811 C-25.0581424 189.03109589 -26.00315613 189.04031067 -26.97680664 189.04980469 C-28.46713158 189.04673813 -28.46713158 189.04673813 -29.98756409 189.04360962 C-33.28356105 189.04059259 -36.57906221 189.05910533 -39.875 189.078125 C-42.15660986 189.08118087 -44.43822159 189.0830583 -46.71983337 189.08380127 C-51.50575884 189.08841001 -56.29151657 189.1028588 -61.07739258 189.125 C-67.22708316 189.15329878 -73.37664152 189.16421239 -79.52639103 189.1686821 C-84.23853389 189.17282923 -88.95064974 189.18264051 -93.66277885 189.19455719 C-95.93110371 189.20027371 -98.1994312 189.20502781 -100.46776009 189.20882416 C-103.63097885 189.21566218 -106.79409052 189.22928239 -109.95727539 189.24511719 C-110.90431335 189.24623505 -111.85135132 189.24735291 -112.8270874 189.24850464 C-116.94005404 188.85617065 -116.94005404 188.85617065 -120.40234375 190.40625 C-120.63142201 192.47548366 -120.79777927 194.55172477 -120.9375 196.62890625 C-121.02451172 197.88896484 -121.11152344 199.14902344 -121.20117188 200.44726562 C-121.28916139 201.78775393 -121.3770507 203.12824881 -121.46484375 204.46875 C-121.55621904 205.81317976 -121.6480105 207.15758131 -121.74023438 208.50195312 C-121.96504569 211.80312974 -122.18555355 215.10453848 -122.40234375 218.40625 C-118.42577513 219.33773592 -114.67575536 219.56644307 -110.59594727 219.63085938 C-109.93185852 219.64224945 -109.26776978 219.65363953 -108.58355713 219.66537476 C-101.68119224 219.77548257 -94.77781246 219.82333684 -87.87475586 219.86621094 C-84.60274138 219.88852938 -81.33185981 219.93037403 -78.06030273 219.98925781 C-74.09920484 220.06039158 -70.13917679 220.09704582 -66.17747307 220.10932922 C-64.67232137 220.11971433 -63.16720111 220.14210269 -61.66241646 220.17692566 C-53.53620366 220.64737082 -53.53620366 220.64737082 -46.20797729 217.86499023 C-44.72215491 216.11614512 -43.59825603 214.35606524 -42.40234375 212.40625 C-37.52070749 209.07786164 -32.24365158 208.12360607 -26.40234375 208.40625 C-21.44159872 209.60734729 -17.57187908 211.26595305 -13.90234375 214.84375 C-10.10489901 221.33105143 -9.75776989 226.9936506 -10.40234375 234.40625 C-12.24941513 239.75303559 -15.5322142 244.0029669 -20.6953125 246.52734375 C-26.67821981 248.46984612 -33.24875962 248.29738826 -39.02734375 245.90625 C-40.20296875 245.16375 -40.20296875 245.16375 -41.40234375 244.40625 C-42.06234375 244.40625 -42.72234375 244.40625 -43.40234375 244.40625 C-43.40234375 243.74625 -43.40234375 243.08625 -43.40234375 242.40625 C-44.06234375 242.40625 -44.72234375 242.40625 -45.40234375 242.40625 C-45.71171875 241.601875 -46.02109375 240.7975 -46.33984375 239.96875 C-47.1656972 237.51544595 -47.1656972 237.51544595 -48.40234375 236.40625 C-50.739487 236.30601445 -53.047087 236.27005797 -55.38476562 236.27685547 C-56.47985191 236.27422699 -56.47985191 236.27422699 -57.59706116 236.27154541 C-60.02176253 236.26712701 -62.44639157 236.27006483 -64.87109375 236.2734375 C-66.54878758 236.27276446 -68.22648131 236.27179443 -69.9041748 236.27053833 C-73.42489549 236.26906137 -76.94559085 236.27121584 -80.46630859 236.27587891 C-84.98944871 236.2815762 -89.51252949 236.27829718 -94.03566742 236.27230644 C-97.5013677 236.26870077 -100.96705382 236.26983944 -104.43275452 236.27243423 C-106.100998 236.27310349 -107.76924274 236.27227514 -109.43748474 236.26995468 C-111.76499869 236.26742805 -114.09241523 236.27126887 -116.41992188 236.27685547 C-117.46413048 236.27381912 -117.46413048 236.27381912 -118.5294342 236.27072144 C-121.74447614 236.01399368 -121.74447614 236.01399368 -124.40234375 237.40625 C-124.93006415 241.05468734 -125.15721479 244.72931559 -125.40234375 248.40625 C-125.48548828 249.65341797 -125.48548828 249.65341797 -125.5703125 250.92578125 C-125.7470602 255.86630036 -125.27140237 259.19829736 -122.40234375 263.40625 C-118.89127606 266.94609694 -115.77146365 269.29333149 -110.64488506 269.53767776 C-109.5197944 269.54065243 -108.39470373 269.54362709 -107.23551941 269.54669189 C-105.29867027 269.55525711 -105.29867027 269.55525711 -103.32269287 269.56399536 C-101.8885499 269.56524071 -100.45440682 269.56636581 -99.02026367 269.56738281 C-97.51233295 269.57201133 -96.0044034 269.57703603 -94.49647522 269.58242798 C-90.39720763 269.59555094 -86.29795642 269.60199675 -82.1986711 269.60643864 C-79.63754986 269.60936958 -77.07643309 269.61347443 -74.5153141 269.61794281 C-66.50200108 269.63161757 -58.48869828 269.64128429 -50.4753744 269.6451447 C-41.22548723 269.64962531 -31.97574783 269.66717339 -22.7259056 269.6961453 C-15.57591359 269.71776268 -8.42596315 269.72784901 -1.27593881 269.72918582 C2.9943651 269.73023382 7.26453008 269.7361406 11.53479958 269.75400543 C15.55262958 269.7704871 19.57021624 269.77264123 23.58806801 269.76386642 C25.06104687 269.76309609 26.53403882 269.7674383 28.00698471 269.77732468 C30.02124363 269.79004923 32.03560036 269.78237382 34.04988098 269.77374268 C35.17610272 269.77520924 36.30232447 269.7766758 37.46267414 269.7781868 C41.70838455 269.2744723 45.07218461 267.79765406 48.2421875 264.90625 C52.59159933 259.3203833 52.69307973 255.45717161 52.328125 248.60888672 C52.28116989 247.68817823 52.23421478 246.76746975 52.18583679 245.81886101 C51.49022302 233.27212917 50.2802821 220.76579919 49.10604477 208.25671625 C48.77232364 204.6916131 48.44376357 201.12603363 48.11450195 197.56051636 C47.56287104 191.5948997 47.00775691 185.62961593 46.45019531 179.66455078 C45.80729108 172.78624368 45.16888535 165.90753101 44.53306675 159.02856553 C43.85145068 151.65419108 43.16715955 144.2800669 42.48177719 136.90604162 C42.28592845 134.79737667 42.09051323 132.6886719 41.89517212 130.57995987 C41.53124034 126.65352651 41.16424095 122.72738314 40.796875 118.80126953 C40.68983246 117.6438324 40.58278992 116.48639526 40.47250366 115.29388428 C40.27683232 113.21282316 40.07316355 111.1324888 39.85922241 109.05322647 C39.70054695 107.44747513 39.56621522 105.83872848 39.47695923 104.2276268 C39.22431159 100.93739438 38.79982555 99.60628776 36.41964054 97.25119781 C33.17236433 95.12820402 31.54840219 94.9076823 27.70835876 94.91177368 C26.52928452 94.9033847 25.35021027 94.89499573 24.13540649 94.88635254 C22.20814224 94.90321106 22.20814224 94.90321106 20.24194336 94.92041016 C18.86839944 94.91826311 17.4948573 94.91438365 16.12132263 94.90890503 C12.39814876 94.89922494 8.67545564 94.91449726 4.95233989 94.93481112 C1.05445972 94.95239907 -2.84340599 94.94885672 -6.74131775 94.9480896 C-13.28571603 94.9499616 -19.82992863 94.96731278 -26.37426758 94.99462891 C-33.94002771 95.0260918 -41.50558464 95.03662458 -49.07140547 95.0351578 C-57.12820046 95.03380679 -65.18491713 95.04768849 -73.24168849 95.06605101 C-75.56273557 95.07031293 -77.88377 95.07173326 -80.20482063 95.07252884 C-83.85168197 95.07453832 -87.49837279 95.08675271 -91.14517784 95.10686111 C-93.12197498 95.11548681 -95.09880709 95.11436839 -97.07562256 95.11297607 C-98.25187698 95.12150604 -99.42813141 95.13003601 -100.64002991 95.13882446 C-101.66225678 95.14217615 -102.68448366 95.14552784 -103.73768711 95.14898109 C-106.47310018 95.41308144 -108.09845012 95.93809049 -110.40234375 97.40625 Z M-37.40234375 132.40625 C-37.46875929 136.25835127 -37.27463532 138.40473005 -34.71484375 141.34375 C-31.69648315 142.73056433 -29.69264296 142.8175374 -26.40234375 142.40625 C-23.97930007 141.4848108 -23.97930007 141.4848108 -22.40234375 139.40625 C-21.14822807 136.04450863 -21.14822807 136.04450863 -21.40234375 132.40625 C-23.80547443 128.98360933 -25.28945108 127.63810264 -29.40234375 126.78125 C-33.51523642 127.63810264 -34.99921307 128.98360933 -37.40234375 132.40625 Z M-3.83984375 175.96875 C-6.00630403 179.34842804 -5.96522377 181.46608987 -5.40234375 185.40625 C-3.98567708 187.98958333 -3.98567708 187.98958333 -1.40234375 189.40625 C2.53781638 189.96913002 4.65547821 190.01021028 8.03515625 187.84375 C10.20161653 184.46407196 10.16053627 182.34641013 9.59765625 178.40625 C8.18098958 175.82291667 8.18098958 175.82291667 5.59765625 174.40625 C1.65749612 173.84336998 -0.46016571 173.80228972 -3.83984375 175.96875 Z M-36.40234375 224.40625 C-37.56683256 227.30976124 -37.56683256 227.30976124 -37.40234375 230.40625 C-35.71648248 233.21601878 -34.43254763 234.90776425 -31.46484375 236.34375 C-28.57523535 236.43131389 -26.92227253 235.82774829 -24.40234375 234.40625 C-22.25888552 231.76265151 -21.40234375 230.26276709 -21.40234375 226.84375 C-22.76005098 223.53433862 -24.37248328 222.26548256 -27.40234375 220.40625 C-31.86014062 219.53643598 -33.75821841 220.81779418 -36.40234375 224.40625 Z " fill="#10235E" transform="translate(179.40234375,18.59375)"/>
<path d="M0 0 C2.27341801 3.41012701 2.40987256 5.15728996 2.77200317 9.19564819 C2.89255066 10.49359314 3.01309814 11.79153809 3.13729858 13.1288147 C3.26243569 14.57072521 3.38739931 16.01265078 3.51220703 17.45458984 C3.64971062 18.97093141 3.78795306 20.48720613 3.92687988 22.00341797 C4.30245905 26.12726399 4.66722687 30.25200214 5.02979517 34.37700987 C5.41135789 38.70093765 5.80174131 43.02406993 6.19088745 47.34732056 C6.84400287 54.61855677 7.4902534 61.89037835 8.13232422 69.16259766 C8.87244669 77.54457504 9.6226243 85.92560423 10.37846863 94.3061775 C11.10688215 102.38464051 11.82868202 110.46368105 12.54732895 118.54301834 C12.85232716 121.97107711 13.15947635 125.39893278 13.4683876 128.82664108 C13.83326777 132.87925075 14.19226794 136.93234204 14.54696655 140.9858551 C14.67721219 142.46412614 14.80935559 143.94223156 14.94366074 145.42013931 C17.79249604 176.82752956 17.79249604 176.82752956 7.484375 189.35546875 C1.41100853 196.0841195 -6.83812381 199.06692093 -15.82128906 199.54589844 C-17.9691096 199.58712609 -20.11741019 199.60694638 -22.265625 199.609375 C-23.48089874 199.62604721 -24.69617249 199.64271942 -25.94827271 199.65989685 C-29.33375088 199.70119152 -32.71841823 199.72444554 -36.10405731 199.73882675 C-39.00366799 199.75392411 -41.90308243 199.78278398 -44.80258751 199.81127834 C-55.15687899 199.91167333 -65.51121052 199.95210832 -75.8658905 199.9883194 C-79.17773235 200.0006624 -82.4895603 200.01506691 -85.8013916 200.02996826 C-102.06206731 200.10283371 -118.32266808 200.15130362 -134.58348083 200.17988586 C-138.37634113 200.18750269 -142.16918453 200.19802022 -145.96203613 200.20910645 C-151.99433104 200.22579112 -158.02654796 200.23166943 -164.05886459 200.22944832 C-166.30737546 200.23012275 -168.55588813 200.23418598 -170.80438614 200.24181938 C-173.90662049 200.2516191 -177.00860122 200.24885729 -180.11083984 200.24291992 C-181.01534504 200.24854321 -181.91985023 200.25416649 -182.85176468 200.25996017 C-187.95547157 200.23456511 -192.16346777 199.65274859 -197 198 C-197 197.67 -197 197.34 -197 197 C-195.56820498 196.99780016 -195.56820498 196.99780016 -194.10748482 196.99555588 C-170.86250374 196.95893184 -147.61766641 196.89944412 -124.37280464 196.81609726 C-113.13167207 196.77631822 -101.89060939 196.74391992 -90.64941406 196.72900391 C-80.84954506 196.71598156 -71.04982991 196.68900185 -61.25004756 196.64538693 C-56.06296573 196.6227854 -50.87607358 196.60708855 -45.68893814 196.60811615 C-40.80183182 196.60886352 -35.9151446 196.59088142 -31.02814674 196.55883217 C-29.23920288 196.55034711 -27.45021194 196.54857374 -25.66125679 196.55419731 C-14.05249409 196.58581514 -3.50128182 196.15278363 5.46484375 187.84375 C15.60895129 175.66049616 13.24421639 160.91150489 11.91430664 146.22021484 C11.79725749 144.88497254 11.68066864 143.54968983 11.5644989 142.21437073 C11.2509477 138.62525601 10.93100055 135.03673832 10.60978246 131.44830275 C10.27287983 127.67237448 9.94189438 123.89592729 9.61021423 120.11953735 C9.05288298 113.78316216 8.49180296 107.44712871 7.92797852 101.11132812 C7.13515366 92.20217474 6.34893499 83.29244769 5.56413472 74.38258433 C4.50989124 62.41757088 3.45366492 50.45272724 2.389925 38.488554 C2.22158393 36.59410035 2.0537595 34.69960081 1.88595581 32.80509949 C1.35948332 26.89376539 0.81088338 20.98700196 0.18556881 15.08522987 C-0.08799533 12.0111997 -0.09531067 8.95920302 -0.0625 5.875 C-0.05347656 4.75867188 -0.04445312 3.64234375 -0.03515625 2.4921875 C-0.01775391 1.25855469 -0.01775391 1.25855469 0 0 Z " fill="#040A35" transform="translate(249,124)"/>
<path d="M0 0 C34.32 0 68.64 0 104 0 C104 0.33 104 0.66 104 1 C102.73688492 1.01030746 101.47376984 1.02061493 100.17237854 1.03123474 C88.29671055 1.12878658 76.42109711 1.23150288 64.54551792 1.33933926 C58.4394624 1.39461766 52.33340213 1.44804538 46.22729492 1.49731445 C40.33990594 1.54488564 34.45257728 1.59722554 28.56525993 1.65294075 C26.31369456 1.67339725 24.06211262 1.69210474 21.81051826 1.70907402 C18.66862087 1.73304535 15.52683867 1.76310947 12.38500977 1.79467773 C10.97376579 1.80331093 10.97376579 1.80331093 9.53401184 1.81211853 C5.44209231 1.44497827 5.44209231 1.44497827 2 3 C1.77092174 5.06923366 1.60456448 7.14547477 1.46484375 9.22265625 C1.37783203 10.48271484 1.29082031 11.74277344 1.20117188 13.04101562 C1.11318236 14.38150393 1.02529305 15.72199881 0.9375 17.0625 C0.84612471 18.40692976 0.75433325 19.75133131 0.66210938 21.09570312 C0.43729806 24.39687974 0.2167902 27.69828848 0 31 C9.41418965 31.16237528 18.8278955 31.28666092 28.24318123 31.3626852 C32.61542433 31.3991785 36.9867077 31.44865407 41.35839844 31.52807617 C45.57951115 31.60428048 49.79970244 31.64601966 54.02145004 31.6641407 C55.62988668 31.67704944 57.23827428 31.70225908 58.84631729 31.7401104 C67.44941677 32.26037935 67.44941677 32.26037935 75.25921631 29.46096802 C76.74762066 27.70995573 77.83517395 25.97079657 79 24 C83.88615324 20.66853188 89.15489211 19.72534001 95 20 C101.79445632 21.57781279 106.1936442 24.17151768 110 30 C113.05067973 36.40319351 113.10488773 43.6853368 110.875 50.375 C107.29006483 55.39390924 103.99892721 59.08526189 98 61 C90.24507557 61.91989448 84.63791222 61.08486906 78 57 C78 56.34 78 55.68 78 55 C77.34 55 76.68 55 76 55 C75.41915901 53.78006096 75.41915901 53.78006096 74.82658386 52.53547668 C73.19393168 49.65456701 73.19393168 49.65456701 69.79194641 49.39872742 C68.45288177 49.38423744 67.11334768 49.39752278 65.7746582 49.43237305 C65.04270233 49.43164291 64.31074646 49.43091278 63.55661011 49.43016052 C61.13724648 49.43364406 58.71980842 49.47253709 56.30078125 49.51171875 C54.62356112 49.52104426 52.94632736 49.52816161 51.26908875 49.53315735 C46.85462844 49.55224809 42.44099075 49.60136601 38.02685547 49.65667725 C33.52257415 49.70782543 29.01815989 49.73066187 24.51367188 49.75585938 C15.67541982 49.80948335 6.83777831 49.89482072 -2 50 C-2.04898438 50.77085937 -2.09796875 51.54171875 -2.1484375 52.3359375 C-2.22320312 53.33882813 -2.29796875 54.34171875 -2.375 55.375 C-2.47941406 56.87160156 -2.47941406 56.87160156 -2.5859375 58.3984375 C-3 61 -3 61 -5 63 C-5.05402274 60.89611431 -5.09280256 58.79183286 -5.125 56.6875 C-5.14820313 55.51574219 -5.17140625 54.34398437 -5.1953125 53.13671875 C-5 50 -5 50 -3 47 C-0.5207952 46.67090813 1.71458892 46.53876973 4.20019531 46.5324707 C4.94187454 46.51918228 5.68355377 46.50589386 6.44770813 46.49220276 C8.90795478 46.45340597 11.36761044 46.4378965 13.828125 46.42578125 C15.53725319 46.41106567 17.24637998 46.39618613 18.95550537 46.38114929 C22.5434548 46.35412386 26.13119645 46.34060211 29.71923828 46.33422852 C34.31116858 46.32337337 38.90089341 46.26173006 43.49217606 46.1875124 C47.02505858 46.13906585 50.55741276 46.1266992 54.09059906 46.12416649 C55.78273033 46.11694333 57.47485975 46.09649857 59.16666412 46.06246376 C72.45296486 45.81567752 72.45296486 45.81567752 76.31286621 48.77059937 C77.81413113 50.78701594 78.87849794 52.76047715 80 55 C84.60030644 58.50499538 89.40603501 58.56747482 95.01953125 58.4140625 C99.55627913 57.78379346 102.70244681 56.15670293 106 53 C109.49416525 47.70239462 110.46641531 42.7054756 109.375 36.5 C108.20605922 31.84777258 106.46871366 29.30737814 103 26 C97.26525526 23.12274014 91.26787441 23.36138638 85 24 C80.32309574 26.17717957 78.41422581 28.53368225 76 33 C73.04022416 34.47988792 70.04021991 34.13010399 66.79638672 34.11352539 C66.0548233 34.11367142 65.31325989 34.11381744 64.54922485 34.1139679 C62.09268287 34.11327 59.63621627 34.10548334 57.1796875 34.09765625 C55.4786076 34.09579163 53.77752716 34.09436794 52.07644653 34.09336853 C47.59493533 34.08954678 43.11345643 34.0797194 38.63195801 34.06866455 C34.0606327 34.05844308 29.48930219 34.05386933 24.91796875 34.04882812 C15.94529829 34.03809685 6.97265183 34.02102451 -2 34 C-3.62008966 30.75982069 -2.90104161 27.2836749 -2.6875 23.75 C-2.63432617 22.65171875 -2.63432617 22.65171875 -2.58007812 21.53125 C-2.16393782 14.22705594 -1.04646777 7.3252744 0 0 Z " fill="#040B3B" transform="translate(58,206)"/>
<path d="M0 0 C0 0.66 0 1.32 0 2 C4.62 2 9.24 2 14 2 C14 2.33 14 2.66 14 3 C12.96593018 3.01458252 11.93186035 3.02916504 10.86645508 3.04418945 C7.01763918 3.10230882 3.16940001 3.17954023 -0.67895508 3.26245117 C-2.34227108 3.29563655 -4.00569796 3.32368834 -5.66918945 3.34643555 C-8.06509499 3.38009999 -10.45999035 3.4324194 -12.85546875 3.48828125 C-13.5952446 3.49467117 -14.33502045 3.5010611 -15.09721375 3.50764465 C-19.57272361 3.6341373 -22.55656074 4.07200747 -26 7 C-29.62877991 12.36829692 -30.70605842 16.58029735 -31.16918945 22.98022461 C-31.28507243 24.29829165 -31.28507243 24.29829165 -31.40329647 25.6429863 C-31.65590354 28.56166283 -31.88452982 31.48170853 -32.11328125 34.40234375 C-32.28892003 36.48465004 -32.46609974 38.56682686 -32.64471436 40.64888 C-33.1210587 46.24877199 -33.57706055 51.85014987 -34.02919388 57.45204163 C-34.5025234 63.27531973 -34.99382774 69.09707591 -35.48413086 74.91894531 C-36.0809506 82.01719287 -36.67616365 89.11555574 -37.26307678 96.21463013 C-38.41947285 110.19148821 -39.61920917 124.16339604 -40.88459206 138.13081551 C-41.13765447 140.92424111 -41.38952916 143.71777132 -41.64103699 146.51133728 C-42.93329054 160.8555765 -42.93329054 160.8555765 -43.52261353 167.25119019 C-45.50904761 187.74721593 -45.50904761 187.74721593 -46.28515625 208.3125 C-46.28773941 209.03826233 -46.29032257 209.76402466 -46.29298401 210.51177979 C-46.16511636 218.72323539 -43.41930194 225.47127462 -37.83203125 231.46875 C-32.4412478 235.97447945 -25.75585096 238.38447042 -19 240 C-21.37830152 241.5273496 -22.4755272 242.10703526 -25.296875 241.53125 C-35.56567433 237.2144299 -42.23599357 232.3321286 -47 222 C-51.32614509 208.93340807 -48.76489103 193.91299823 -47.57885742 180.40405273 C-47.42554256 178.60031208 -47.27279343 176.79652326 -47.12055969 174.99269104 C-46.70958833 170.14563545 -46.2899358 165.29937085 -45.86792922 160.45326495 C-45.51518034 156.39480371 -45.16640548 152.33600445 -44.81748372 148.27721268 C-43.99442937 138.70564225 -43.16388818 129.13474139 -42.32885742 119.56420898 C-41.46879621 109.70498824 -40.62267428 99.8446385 -39.78309363 89.98365444 C-39.0595127 81.4916767 -38.32676602 73.00052285 -37.58679277 64.50995785 C-37.14588566 59.44945535 -36.70856588 54.38870751 -36.28032494 49.32711601 C-35.87800721 44.57609032 -35.4642603 39.82619614 -35.04174614 35.07692528 C-34.88889021 33.33703701 -34.74006659 31.59678894 -34.59562302 29.8561821 C-34.39747263 27.47616071 -34.18464725 25.09788309 -33.96818542 22.71946716 C-33.88791045 21.69252114 -33.88791045 21.69252114 -33.80601376 20.64482874 C-33.15078741 13.79588874 -30.84866038 7.99126804 -26 3 C-18.70728161 -1.28983434 -8.1538713 -0.13951491 0 0 Z " fill="#050B35" transform="translate(70,81)"/>
<path d="M0 0 C9.63979937 9.23947547 15.58497668 19.86387567 16.3046875 33.3984375 C16.39147647 38.68533229 16.42721458 43.96666663 16.3515625 49.25390625 C15.6915625 48.92390625 15.0315625 48.59390625 14.3515625 48.25390625 C14.29548828 46.62195313 14.29548828 46.62195313 14.23828125 44.95703125 C13.49382327 27.08800007 10.3558726 14.1031394 -2.6484375 1.25390625 C-10.9983768 -6.25567514 -21.62606359 -8.13976462 -32.59375 -7.6015625 C-42.78538355 -6.39080708 -52.15374214 -1.40092733 -59.12109375 6.1796875 C-68.74283514 19.24655369 -68.6484375 31.9506728 -68.6484375 48.25390625 C-53.4684375 48.25390625 -38.2884375 48.25390625 -22.6484375 48.25390625 C-22.6484375 48.91390625 -22.6484375 49.57390625 -22.6484375 50.25390625 C-20.6684375 50.25390625 -18.6884375 50.25390625 -16.6484375 50.25390625 C-16.6484375 50.58390625 -16.6484375 50.91390625 -16.6484375 51.25390625 C-24.15976515 51.32977535 -31.67099454 51.38242949 -39.18261719 51.41870117 C-41.73962089 51.43381695 -44.29659856 51.45430991 -46.85351562 51.48022461 C-50.52220067 51.51648487 -54.1905439 51.53360461 -57.859375 51.546875 C-59.00836273 51.56235886 -60.15735046 51.57784271 -61.34115601 51.59379578 C-62.93257919 51.59413567 -62.93257919 51.59413567 -64.55615234 51.59448242 C-65.96179947 51.60447517 -65.96179947 51.60447517 -67.39584351 51.6146698 C-68.13919952 51.49561783 -68.88255554 51.37656586 -69.6484375 51.25390625 C-72.14029208 47.51612437 -71.95381211 44.58016507 -71.8984375 40.25390625 C-71.89021973 39.48860596 -71.88200195 38.72330566 -71.87353516 37.93481445 C-71.59462928 23.70011835 -67.85655349 11.77829444 -57.85546875 1.22265625 C-54.13784 -2.09360019 -50.07248006 -4.4905573 -45.6484375 -6.74609375 C-44.68550781 -7.23916016 -44.68550781 -7.23916016 -43.703125 -7.7421875 C-29.20417568 -14.53653819 -11.67864996 -10.06588402 0 0 Z " fill="#030A36" transform="translate(170.6484375,32.74609375)"/>
<path d="M0 0 C0.33 0 0.66 0 1 0 C1.15855469 0.58007812 1.31710938 1.16015625 1.48046875 1.7578125 C3.12826859 7.27475562 4.85886135 10.95745989 9 15 C12.88153564 16.96144891 16.0876885 17.25280174 20.40733337 17.26069641 C21.70131546 17.26778122 22.99529755 17.27486603 24.32849121 17.28216553 C25.75537144 17.27987189 27.18225134 17.27736222 28.60913086 17.2746582 C30.11735791 17.27900716 31.62558275 17.28419092 33.13380432 17.29014587 C37.22471466 17.30352709 41.31553257 17.30411555 45.40646052 17.30158257 C48.82347976 17.30051231 52.24048033 17.30539762 55.65749556 17.310188 C63.71951321 17.32128005 71.78148427 17.32172222 79.84350586 17.31567383 C88.15678171 17.30963279 96.46988837 17.321949 104.78313535 17.3432439 C111.92468307 17.36086385 119.06617696 17.36686065 126.20774561 17.36360615 C130.47130183 17.36179385 134.73473734 17.36442423 138.99827385 17.37832069 C143.00793797 17.39090092 147.01733842 17.3889532 151.02699852 17.37590981 C152.49674824 17.37354493 153.96651653 17.37627558 155.43624496 17.38453293 C157.44603328 17.39500847 159.45589677 17.3850926 161.46568298 17.3742218 C162.58930709 17.37438954 163.71293119 17.37455729 164.87060452 17.37473011 C169.53292674 16.81643937 172.83397642 15.13270862 176.1875 11.875 C178.55640236 8.11743074 179.7780659 4.24899812 181 0 C181.33 0 181.66 0 182 0 C181.73103369 6.05174197 181.09093541 10.24566965 177 15 C171.4483122 19.27942601 167.64704047 20.12077256 160.76434326 20.14717102 C159.48304031 20.15432632 158.20173737 20.16148163 156.88160706 20.16885376 C155.46371484 20.17169383 154.04582237 20.17440559 152.62792969 20.17700195 C151.13294823 20.18326928 149.63796833 20.18991632 148.14299011 20.19691467 C143.23596271 20.21792472 138.32893511 20.22831389 133.421875 20.23828125 C131.73063389 20.24232989 130.03939294 20.24644684 128.34815216 20.25063133 C120.40211721 20.26967594 112.45609151 20.28390875 104.51003814 20.2922433 C95.34616714 20.30201471 86.18253774 20.32833468 77.01875186 20.36874419 C69.92985544 20.39892851 62.84102819 20.41371435 55.75206876 20.41702431 C51.52078856 20.41937206 47.2897667 20.42829659 43.0585556 20.45348549 C39.07594769 20.47681208 35.09376738 20.48098123 31.11110878 20.47072411 C29.6534743 20.47022975 28.19581844 20.47652053 26.73824883 20.49028015 C18.75245639 20.56141908 12.76770844 20.46500466 6 16 C2.10037811 11.99775648 0.08669568 8.29743553 -0.125 2.6875 C-0.08375 1.800625 -0.0425 0.91375 0 0 Z " fill="#071044" transform="translate(52,270)"/>
<path d="M0 0 C0.52722656 0.4640625 1.05445313 0.928125 1.59765625 1.40625 C1.59765625 2.06625 1.59765625 2.72625 1.59765625 3.40625 C2.2009375 3.68082031 2.80421875 3.95539062 3.42578125 4.23828125 C12.29010289 9.00524558 17.24253168 21.46525835 20.80859375 30.4609375 C23.88465242 41.10014961 22.39554292 52.50273039 21.59765625 63.40625 C21.26765625 63.40625 20.93765625 63.40625 20.59765625 63.40625 C20.58831055 62.75253418 20.57896484 62.09881836 20.56933594 61.42529297 C20.25582609 43.94558236 19.12776682 29.55791946 9.59765625 14.40625 C9.18128906 13.69984375 8.76492187 12.9934375 8.3359375 12.265625 C1.24978467 1.45551798 -11.93654733 -4.92387671 -24.15234375 -7.84375 C-38.07223071 -10.22877736 -53.03081138 -8.83362506 -65.27734375 -1.40625 C-67.012915 -0.17287553 -68.72208935 1.09851712 -70.40234375 2.40625 C-71.26472656 3.05335937 -72.12710938 3.70046875 -73.015625 4.3671875 C-84.76938144 13.96281871 -90.61667653 27.55545097 -92.40234375 42.40625 C-92.65036018 46.04980479 -92.81271177 49.69507638 -92.96484375 53.34375 C-93.00802734 54.31376953 -93.05121094 55.28378906 -93.09570312 56.28320312 C-93.20096468 58.65743601 -93.30310082 61.03175921 -93.40234375 63.40625 C-94.06234375 63.07625 -94.72234375 62.74625 -95.40234375 62.40625 C-96.1817046 41.85510394 -94.38798693 24.08778053 -80.65234375 7.59375 C-58.58500417 -15.53451937 -26.13656457 -17.33937942 0 0 Z " fill="#030833" transform="translate(179.40234375,18.59375)"/>
<path d="M0 0 C4.24956311 2.97395254 6.59427278 6.63438083 8.23828125 11.56640625 C8.93272964 18.6133497 8.747838 24.84514034 4.23828125 30.56640625 C-1.82379652 36.15278777 -6.69299442 37.94139769 -14.90625 37.84375 C-20.70393137 37.28063731 -24.8907848 34.85485216 -28.69921875 30.50390625 C-30.76171875 27.56640625 -30.76171875 27.56640625 -31.76171875 24.56640625 C-30.77171875 24.07140625 -30.77171875 24.07140625 -29.76171875 23.56640625 C-25.76171875 29.31640625 -25.76171875 29.31640625 -25.76171875 31.56640625 C-18.23755753 34.61674188 -11.31651925 36.08467308 -3.38671875 33.44140625 C0.6849462 30.53307414 3.62506204 27.40606387 5.23828125 22.56640625 C5.9327699 15.41658871 5.70022226 10.31996177 1.23828125 4.56640625 C-3.99643856 0.42225307 -7.95667714 -0.82229333 -14.61328125 -0.7109375 C-20.02981245 -0.01171256 -23.84186297 2.44493456 -27.26235962 6.61514282 C-30.63370084 9.99112351 -33.32353636 10.26859086 -37.98129272 10.31292725 C-38.9134964 10.29135559 -39.84570007 10.26978394 -40.80615234 10.24755859 C-41.8018927 10.24843475 -42.79763306 10.24931091 -43.82354736 10.25021362 C-47.10322482 10.24604522 -50.38083768 10.19942617 -53.66015625 10.15234375 C-55.93843468 10.14114901 -58.21672758 10.13261014 -60.49502563 10.12661743 C-66.48276863 10.10374137 -72.46963421 10.04482709 -78.45703125 9.97839355 C-84.57019176 9.91694558 -90.68349447 9.88959694 -96.796875 9.859375 C-108.78554112 9.79508396 -120.77355689 9.69271803 -132.76171875 9.56640625 C-132.43171875 8.90640625 -132.10171875 8.24640625 -131.76171875 7.56640625 C-130.88137466 7.56973717 -130.88137466 7.56973717 -129.98324585 7.57313538 C-113.48730112 7.63248614 -96.99205685 7.62648722 -80.49609375 7.57562256 C-76.90493019 7.56675969 -73.31382934 7.56500467 -69.72265625 7.56494141 C-64.35818365 7.56191643 -58.99480951 7.52737536 -53.63067627 7.46774292 C-51.6414422 7.45024441 -49.6520888 7.44311382 -47.66278076 7.44656372 C-44.90039983 7.44933316 -42.1408847 7.41497064 -39.37890625 7.37109375 C-38.17010803 7.3847271 -38.17010803 7.3847271 -36.93688965 7.39863586 C-33.95967792 7.32046293 -31.52238538 7.21607934 -29.19543457 5.22866821 C-27.96662939 3.74028985 -26.85677053 2.15577528 -25.76171875 0.56640625 C-17.25980717 -5.23599326 -8.78525926 -4.79568585 0 0 Z " fill="#02072B" transform="translate(193.76171875,183.43359375)"/>
<path d="M0 0 C60.39 0 120.78 0 183 0 C183.33 0.66 183.66 1.32 184 2 C143.53808375 2.87343283 103.07765935 3.13447221 62.60689163 3.18167114 C58.8087054 3.18750583 55.01054697 3.19721844 51.21237183 3.20800781 C45.16161492 3.22464792 39.11093271 3.23090021 33.06015396 3.22919655 C30.80233511 3.23003751 28.54451478 3.23420969 26.28670883 3.24188805 C23.16997867 3.25168187 20.0535019 3.24889235 16.93676758 3.24291992 C16.02756026 3.24854195 15.11835295 3.25416397 14.18159389 3.25995636 C9.0660892 3.23464064 4.84725758 2.65812562 0 1 C0 0.67 0 0.34 0 0 Z " fill="#05144D" transform="translate(52,321)"/>
<path d="M0 0 C1.18329391 -0.00708481 2.36658783 -0.01416962 3.58573914 -0.02146912 C4.88555222 -0.0189917 6.1853653 -0.01651428 7.52456665 -0.01396179 C8.90604427 -0.01830859 10.28751948 -0.02349163 11.66899109 -0.02944946 C15.42318877 -0.04285557 19.17728587 -0.04341626 22.93150282 -0.04088616 C26.06518924 -0.03981734 29.19885524 -0.04469764 32.33253729 -0.04949158 C39.72615242 -0.06059277 47.11971675 -0.06102103 54.51333618 -0.05497742 C62.14040721 -0.04893879 69.7672937 -0.06124434 77.39433324 -0.08254749 C83.94220035 -0.10016383 90.49000873 -0.10616472 97.03789866 -0.10290974 C100.94878251 -0.10109647 104.85953479 -0.10373715 108.77039719 -0.11762428 C112.44926709 -0.13019828 116.12784953 -0.12826279 119.80671501 -0.11521339 C121.79887007 -0.11171929 123.79103389 -0.12302931 125.78315735 -0.13478088 C126.97209091 -0.12776657 128.16102448 -0.12075226 129.38598633 -0.11352539 C130.93290193 -0.113777 130.93290193 -0.113777 132.51106834 -0.1140337 C135.80494719 0.32539521 137.68298706 1.25841828 140.31997681 3.26069641 C140.64997681 4.25069641 140.97997681 5.24069641 141.31997681 6.26069641 C139.31997681 5.26069641 137.31997681 4.26069641 135.31997681 3.26069641 C133.47913053 3.16502508 131.63477344 3.13439056 129.79144287 3.13371277 C128.61649261 3.13089294 127.44154236 3.12807312 126.23098755 3.12516785 C124.93535889 3.12719208 123.63973022 3.12921631 122.30484009 3.13130188 C120.93174188 3.1299474 119.55864403 3.1281672 118.18554688 3.12599182 C114.44996966 3.12142223 110.71441997 3.12320533 106.97884226 3.12637091 C103.0729302 3.12889797 99.16702055 3.12655591 95.2611084 3.12498474 C88.6988584 3.12316363 82.13661963 3.12556738 75.57437134 3.13032532 C67.98655867 3.1357633 60.3987729 3.13400842 52.81096089 3.12849891 C46.3005062 3.12396072 39.7900596 3.12332084 33.27960384 3.12593758 C29.38946331 3.12749704 25.49933542 3.12770324 21.60919571 3.12440109 C17.9501253 3.12151231 14.29108953 3.12351666 10.63202286 3.12929535 C8.64802345 3.1312486 6.66402112 3.12827727 4.68002319 3.12516785 C3.49943329 3.12798767 2.31884338 3.1308075 1.10247803 3.13371277 C0.07635469 3.13408979 -0.94976864 3.13446682 -2.00698662 3.13485527 C-4.39370796 3.24721727 -6.4003365 3.57611506 -8.68002319 4.26069641 C-8.9956127 6.53110244 -9.30730678 8.80204999 -9.61752319 11.07319641 C-9.75674194 12.08966248 -9.75674194 12.08966248 -9.89877319 13.12666321 C-10.56969698 18.13792055 -11.03442608 23.13808468 -11.33627319 28.18647766 C-11.68002319 30.26069641 -11.68002319 30.26069641 -13.68002319 32.26069641 C-14.02160667 8.38780687 -14.02160667 8.38780687 -8.68002319 2.26069641 C-5.2551654 -0.02254212 -4.02630774 0.00802067 0 0 Z " fill="#081146" transform="translate(77.68002319335938,111.73930358886719)"/>
<path d="M0 0 C0.33 0 0.66 0 1 0 C3.87511174 27.27614375 6.47338297 54.57122692 8.92486572 81.88848877 C9.54345269 88.77546203 10.16593988 95.66208418 10.78791809 102.54875183 C11.11609915 106.18254668 11.44328056 109.81642915 11.76957703 113.45039368 C11.91815397 115.10210969 12.06681695 116.75381797 12.21557617 118.40551758 C12.28513645 119.17826491 12.35469673 119.95101225 12.4263649 120.74717617 C12.86002697 125.53600253 13.32070116 130.32101561 13.83172607 135.10231018 C14.09863992 138.11240032 14.09462315 141.10542408 14.0625 144.125 C14.05347656 145.24132812 14.04445312 146.35765625 14.03515625 147.5078125 C14.02355469 148.33023438 14.01195312 149.15265625 14 150 C11.40674721 147.40674721 11.59197921 146.03075779 11.25923157 142.40899658 C11.08886383 140.62566422 11.08886383 140.62566422 10.91505432 138.80630493 C10.79911423 137.49511688 10.68317413 136.18392883 10.5637207 134.83300781 C10.43447816 133.44338077 10.3044649 132.05382522 10.17373657 130.66433716 C9.82048578 126.88391995 9.47864338 123.10254951 9.13920236 119.3208704 C8.78260295 115.36467026 8.41701966 111.40929902 8.05278015 107.45379639 C7.44212835 100.80635629 6.83890767 94.15827255 6.23999023 87.50976562 C5.54788803 79.82790057 4.84390129 72.1471952 4.13352329 64.46700025 C3.45047426 57.07904974 2.7761152 49.69033022 2.1056118 42.30123138 C1.82018217 39.15757296 1.53168069 36.01421894 1.24068642 32.87107086 C0.89795842 29.16501118 0.56284536 25.45833861 0.23352432 21.7510643 C0.05356439 19.74551562 -0.13392039 17.74064659 -0.32164001 15.73580933 C-0.42675903 14.53564178 -0.53187805 13.33547424 -0.6401825 12.09893799 C-0.73437312 11.05990955 -0.82856375 10.02088112 -0.92560863 8.95036697 C-1.00414648 5.83555016 -0.60845076 3.04967576 0 0 Z " fill="#060B35" transform="translate(219,119)"/>
<path d="M0 0 C0.33 0 0.66 0 1 0 C1.63477602 5.07820819 0.32561506 8.00398847 -2.4375 12.1015625 C-5.82030401 16.21166938 -9.7460235 18.99391939 -15 20 C-20.87416925 20.39161128 -25.88800145 20.14232666 -31 17 C-32.12878137 15.50143396 -33.22586479 13.97872204 -34.29882812 12.43969727 C-37.94881723 8.24955052 -40.44776801 7.30098361 -45.96679688 6.88647461 C-48.72064185 6.81458506 -51.4648179 6.85224707 -54.21875 6.90234375 C-55.6870726 6.896683 -57.15538476 6.88706194 -58.62365723 6.87367249 C-62.46472165 6.84917158 -66.30355265 6.87802907 -70.14440918 6.91845703 C-74.07291024 6.95021566 -78.00113521 6.93088978 -81.9296875 6.91601562 C-89.62041728 6.89434938 -97.30950681 6.92911613 -105 7 C-105.0501123 7.77190674 -105.10022461 8.54381348 -105.15185547 9.33911133 C-105.38371401 12.83092206 -105.62919096 16.32164478 -105.875 19.8125 C-105.95363281 21.02744141 -106.03226563 22.24238281 -106.11328125 23.49414062 C-106.19707031 24.65751953 -106.28085938 25.82089844 -106.3671875 27.01953125 C-106.44050293 28.09307861 -106.51381836 29.16662598 -106.58935547 30.27270508 C-107 33 -107 33 -109 36 C-109.21442553 28.37598102 -109.0153073 21.04889413 -107.9921875 13.5 C-107.89736084 12.77296875 -107.80253418 12.0459375 -107.70483398 11.296875 C-107.47389776 9.53072124 -107.23753071 7.76527896 -107 6 C-97.9770359 5.81439989 -88.95473148 5.67237577 -79.93027306 5.58550262 C-75.73944927 5.54380051 -71.54993394 5.4872706 -67.35986328 5.39648438 C-63.31378011 5.30936951 -59.26895272 5.26168842 -55.22200394 5.24098206 C-53.68049981 5.22623283 -52.13906229 5.19742779 -50.59809494 5.15415955 C-38.46378713 4.82708714 -38.46378713 4.82708714 -34.79864502 7.76391602 C-33.20947266 9.92382812 -33.20947266 9.92382812 -32.07095337 12.08215332 C-31.00170479 14.36342846 -31.00170479 14.36342846 -27.75 16 C-21.70217454 17.61275345 -16.40151445 18.00426968 -10.5625 15.5625 C-9.716875 15.046875 -8.87125 14.53125 -8 14 C-7.01 13.67 -6.02 13.34 -5 13 C-3.8974827 10.83378132 -3.8974827 10.83378132 -3 8 C-2.46178391 6.56120451 -1.91996166 5.12375409 -1.375 3.6875 C-0.92125 2.470625 -0.4675 1.25375 0 0 Z " fill="#030931" transform="translate(169,154)"/>
<path d="M0 0 C34.32 0 68.64 0 104 0 C104 0.33 104 0.66 104 1 C102.73688492 1.01030746 101.47376984 1.02061493 100.17237854 1.03123474 C88.29671055 1.12878658 76.42109711 1.23150288 64.54551792 1.33933926 C58.4394624 1.39461766 52.33340213 1.44804538 46.22729492 1.49731445 C40.33990594 1.54488564 34.45257728 1.59722554 28.56525993 1.65294075 C26.31369456 1.67339725 24.06211262 1.69210474 21.81051826 1.70907402 C18.66862087 1.73304535 15.52683867 1.76310947 12.38500977 1.79467773 C10.97376579 1.80331093 10.97376579 1.80331093 9.53401184 1.81211853 C5.44209231 1.44497827 5.44209231 1.44497827 2 3 C1.79658355 4.68103956 1.65274067 6.36937909 1.53515625 8.05859375 C1.41817383 9.59676758 1.41817383 9.59676758 1.29882812 11.16601562 C1.14157682 13.3428415 0.98791676 15.51992986 0.83789062 17.69726562 C0.75861328 18.72400391 0.67933594 19.75074219 0.59765625 20.80859375 C0.53070557 21.75532959 0.46375488 22.70206543 0.39477539 23.67749023 C0 26 0 26 -2 28 C-2.0558418 25.95867186 -2.09358692 23.91685017 -2.125 21.875 C-2.14820313 20.73804688 -2.17140625 19.60109375 -2.1953125 18.4296875 C-1.92279688 12.24903313 -0.87492575 6.12448023 0 0 Z " fill="#01053C" transform="translate(58,206)"/>
<path d="M0 0 C1.35117416 0.0001133 1.35117416 0.0001133 2.72964478 0.00022888 C3.70364227 0.00539017 4.67763977 0.01055145 5.68115234 0.01586914 C6.67714447 0.01728409 7.6731366 0.01869904 8.6993103 0.02015686 C11.88860037 0.02576603 15.0778209 0.03832009 18.26708984 0.05102539 C20.425943 0.05603921 22.58479725 0.06060232 24.74365234 0.06469727 C30.04315534 0.07573844 35.34261763 0.09248552 40.64208984 0.11352539 C40.64208984 0.77352539 40.64208984 1.43352539 40.64208984 2.11352539 C42.62208984 2.11352539 44.60208984 2.11352539 46.64208984 2.11352539 C46.64208984 2.44352539 46.64208984 2.77352539 46.64208984 3.11352539 C29.15208984 3.11352539 11.66208984 3.11352539 -6.35791016 3.11352539 C-6.35791016 2.45352539 -6.35791016 1.79352539 -6.35791016 1.11352539 C-4.00590956 -0.06247491 -2.62056615 -0.00732002 0 0 Z " fill="#091047" transform="translate(107.35791015625,80.886474609375)"/>
<path d="M0 0 C5.02210978 5.99863112 4.91871212 12.74027353 5.5 20.25 C5.6546875 21.95446289 5.6546875 21.95446289 5.8125 23.69335938 C5.90015625 24.78583984 5.9878125 25.87832031 6.078125 27.00390625 C6.1596582 27.99849854 6.24119141 28.99309082 6.32519531 30.01782227 C6.24617595 32.82326625 5.70442707 34.32071856 4.25 36.6875 C4.17483154 35.8404248 4.09966309 34.99334961 4.0222168 34.12060547 C3.73548512 30.95507041 3.4378822 27.7907931 3.13305664 24.62695312 C3.00374118 23.26179513 2.87866891 21.89622787 2.75805664 20.53027344 C2.58316126 18.55820206 2.39133937 16.58765536 2.19921875 14.6171875 C2.08924561 13.43366699 1.97927246 12.25014648 1.8659668 11.03076172 C0.98905208 6.271162 -0.21859847 2.90658153 -4.06518555 -0.15551758 C-7.11425666 -1.4694712 -9.39384291 -1.7392652 -12.70703125 -1.82421875 C-13.81884766 -1.85966797 -14.93066406 -1.89511719 -16.07617188 -1.93164062 C-17.22666016 -1.95419922 -18.37714844 -1.97675781 -19.5625 -2 C-20.73232422 -2.03416016 -21.90214844 -2.06832031 -23.10742188 -2.10351562 C-25.98818554 -2.18582316 -28.86865138 -2.25503178 -31.75 -2.3125 C-31.75 -2.6425 -31.75 -2.9725 -31.75 -3.3125 C-28.04257072 -3.53966871 -24.33416438 -3.7408696 -20.625 -3.9375 C-19.57828125 -4.00195312 -18.5315625 -4.06640625 -17.453125 -4.1328125 C-10.59015144 -4.48030483 -5.48508836 -4.61246067 0 0 Z " fill="#03093B" transform="translate(243.75,86.3125)"/>
<path d="M0 0 C2.75329021 1.79562405 4.52627461 3.05254922 6 6 C6.3689566 9.91093991 6.33226705 12.33546589 4.5625 15.875 C1.42130893 18.47989016 -0.78914521 19.01637695 -4.80859375 19.28125 C-7 19 -7 19 -10 16.625 C-10.66 15.75875 -11.32 14.8925 -12 14 C-12.33 13.67 -12.66 13.34 -13 13 C-13.40038554 8.83599038 -13.44184328 6.67749304 -11.125 3.125 C-7.54668265 -0.45331735 -4.99886778 -0.42363286 0 0 Z M-9.4375 3.5625 C-11.60396028 6.94217804 -11.56288002 9.05983987 -11 13 C-9.58333333 15.58333333 -9.58333333 15.58333333 -7 17 C-3.05983987 17.56288002 -0.94217804 17.60396028 2.4375 15.4375 C4.60396028 12.05782196 4.56288002 9.94016013 4 6 C2.58333333 3.41666667 2.58333333 3.41666667 0 2 C-3.94016013 1.43711998 -6.05782196 1.39603972 -9.4375 3.5625 Z " fill="#040A37" transform="translate(185,191)"/>
<path d="M0 0 C2.91966192 2.28495281 4.59188033 4.0052083 6 7.4375 C6 10.96214508 4.84564944 13.03377769 3 16 C-0.68459187 18.45639458 -3.72230442 18.80884302 -8 18 C-11.34664567 15.57902228 -12.69586639 13.91240083 -14 10 C-14 5.49783925 -12.239459 3.32799179 -9.25 0.125 C-5.79999675 -1.60000162 -3.65748243 -1.02666173 0 0 Z M-11 5 C-12.16448881 7.90351124 -12.16448881 7.90351124 -12 11 C-10.31413873 13.80976878 -9.03020388 15.50151425 -6.0625 16.9375 C-3.1728916 17.02506389 -1.51992878 16.42149829 1 15 C3.14345823 12.35640151 4 10.85651709 4 7.4375 C2.64229277 4.12808862 1.02986047 2.85923256 -2 1 C-6.45779687 0.13018598 -8.35587466 1.41154418 -11 5 Z " fill="#040B39" transform="translate(154,238)"/>
<path d="M0 0 C3.65520099 2.34484592 5.60066741 3.8724727 7.0625 8 C6.96922967 12.47697606 5.28665838 14.71334162 2.1875 17.8125 C-0.8527265 19.46290867 -2.57949832 19.54728027 -6 19 C-9.99062431 16.51527166 -11.68655935 15.03251036 -13.0625 10.5 C-12.99256618 6.58370586 -12.48078416 4.99404985 -10 2 C-6.78446554 -0.32849047 -3.88978623 -0.54457007 0 0 Z M-11 7 C-11.06641554 10.85210127 -10.87229157 12.99848005 -8.3125 15.9375 C-5.2941394 17.32431433 -3.29029921 17.4112874 0 17 C2.42304368 16.0785608 2.42304368 16.0785608 4 14 C5.25411568 10.63825863 5.25411568 10.63825863 5 7 C2.59686932 3.57735933 1.11289267 2.23185264 -3 1.375 C-7.11289267 2.23185264 -8.59686932 3.57735933 -11 7 Z " fill="#040B38" transform="translate(153,144)"/>
<path d="M0 0 C3.90808372 2.78173645 7.21938821 6.70711229 8.7890625 11.2734375 C8.9140625 14.5234375 8.9140625 14.5234375 8.7890625 17.2734375 C6.69482018 15.17919518 6.3309124 14.20219514 5.4765625 11.4609375 C3.70760034 6.56295685 1.06817942 3.60292237 -3.4609375 0.9609375 C-10.30782521 -0.75078443 -15.92391183 -0.03865631 -22.2578125 3.05078125 C-24.89183625 4.69968012 -26.54781639 6.67029141 -28.2109375 9.2734375 C-28.8709375 8.9434375 -29.5309375 8.6134375 -30.2109375 8.2734375 C-22.49646958 -1.87590935 -12.00365971 -6.74309171 0 0 Z " fill="#050A33" transform="translate(161.2109375,135.7265625)"/>
<path d="M0 0 C-0.33 1.32 -0.66 2.64 -1 4 C-1.495 3.01 -1.495 3.01 -2 2 C-26.75 1.67 -51.5 1.34 -77 1 C-77 0.67 -77 0.34 -77 0 C-67.25584144 -0.1536773 -57.51161645 -0.30185902 -47.76726723 -0.4429636 C-43.24291015 -0.5086533 -38.71859837 -0.57625837 -34.19433594 -0.64819336 C-29.83074999 -0.71750393 -25.46711684 -0.78184517 -21.103405 -0.84269524 C-19.43596089 -0.86682939 -17.76854202 -0.89277474 -16.10115433 -0.92053413 C-13.77141517 -0.95901565 -11.44167066 -0.99114109 -9.11181641 -1.02172852 C-8.07064415 -1.04114754 -8.07064415 -1.04114754 -7.00843811 -1.06095886 C-2.22810432 -1.11405216 -2.22810432 -1.11405216 0 0 Z " fill="#0D143A" transform="translate(133,254)"/>
<path d="M0 0 C0.33 0 0.66 0 1 0 C1 6.27 1 12.54 1 19 C2.65 18.67 4.3 18.34 6 18 C8.20474375 17.98473335 10.4103441 18.03056209 12.61328125 18.12109375 C13.86044922 18.16943359 15.10761719 18.21777344 16.39257812 18.26757812 C17.68615234 18.32365234 18.97972656 18.37972656 20.3125 18.4375 C21.62541016 18.48970703 22.93832031 18.54191406 24.29101562 18.59570312 C27.52759739 18.7251664 30.76385421 18.86012542 34 19 C34 19.33 34 19.66 34 20 C22.78 20.33 11.56 20.66 0 21 C-1.20217503 18.59564994 -1.03897118 17.31618631 -0.87890625 14.6484375 C-0.83056641 13.79765625 -0.78222656 12.946875 -0.73242188 12.0703125 C-0.67634766 11.18085937 -0.62027344 10.29140625 -0.5625 9.375 C-0.51029297 8.4778125 -0.45808594 7.580625 -0.40429688 6.65625 C-0.2744565 4.43715988 -0.13948661 2.21850129 0 0 Z " fill="#10194B" transform="translate(201,63)"/>
<path d="M0 0 C1.2065625 0.0309375 1.2065625 0.0309375 2.4375 0.0625 C-1.3125 3.0625 -1.3125 3.0625 -3.5625 3.0625 C-3.8780895 5.33290603 -4.18978359 7.60385358 -4.5 9.875 C-4.63921875 10.89146606 -4.63921875 10.89146606 -4.78125 11.9284668 C-5.45217379 16.93972414 -5.91690289 21.93988826 -6.21875 26.98828125 C-6.5625 29.0625 -6.5625 29.0625 -8.5625 31.0625 C-8.90104421 7.40202125 -8.90104421 7.40202125 -3.5625 1.0625 C-2.5625 0.0625 -2.5625 0.0625 0 0 Z " fill="#040A36" transform="translate(72.5625,112.9375)"/>
<path d="M0 0 C0 0.66 0 1.32 0 2 C4.62 2 9.24 2 14 2 C14 2.33 14 2.66 14 3 C2.12 3.33 -9.76 3.66 -22 4 C-21.67 3.01 -21.34 2.02 -21 1 C-13.97195301 0.14626761 -7.07721931 -0.12109311 0 0 Z " fill="#070E41" transform="translate(70,81)"/>
<path d="M0 0 C0.33 0 0.66 0 1 0 C0.68187124 7.15789708 -0.61286169 11.72212421 -5.9375 16.875 C-8.44940739 18.2451313 -10.18027277 18.23497727 -13 18 C-12.01 17.34 -11.02 16.68 -10 16 C-4.12356329 11.59267247 -1.1002758 7.48187542 0 0 Z " fill="#030933" transform="translate(233,270)"/>
<path d="M0 0 C-2.50100574 1.25050287 -4.00343052 1.02993449 -6.7890625 0.87890625 C-7.73007813 0.83056641 -8.67109375 0.78222656 -9.640625 0.73242188 C-10.62546875 0.67634766 -11.6103125 0.62027344 -12.625 0.5625 C-13.61757812 0.51029297 -14.61015625 0.45808594 -15.6328125 0.40429688 C-18.08884568 0.27441051 -20.5444936 0.13943836 -23 0 C-23 -0.33 -23 -0.66 -23 -1 C-19.54254978 -1.22527296 -16.08412975 -1.42733544 -12.625 -1.625 C-11.64015625 -1.68945312 -10.6553125 -1.75390625 -9.640625 -1.8203125 C-8.69960937 -1.871875 -7.75859375 -1.9234375 -6.7890625 -1.9765625 C-5.91975098 -2.02893066 -5.05043945 -2.08129883 -4.15478516 -2.13525391 C-2 -2 -2 -2 0 0 Z " fill="#141E57" transform="translate(187,83)"/>
<path d="M0 0 C-0.33 0.66 -0.66 1.32 -1 2 C-3.32156597 2.40729228 -5.6568787 2.74438677 -8 3 C-8 2.34 -8 1.68 -8 1 C-8.66 0.67 -9.32 0.34 -10 0 C-6.42355152 -1.2380014 -3.66305234 -0.74926071 0 0 Z " fill="#0A1044" transform="translate(155,227)"/>
<path d="M0 0 C0 0.66 0 1.32 0 2 C-5.28 1.67 -10.56 1.34 -16 1 C-16 0.67 -16 0.34 -16 0 C-13.7089095 -0.19441368 -11.41709663 -0.38033135 -9.125 -0.5625 C-7.21074219 -0.71912109 -7.21074219 -0.71912109 -5.2578125 -0.87890625 C-2 -1 -2 -1 0 0 Z " fill="#121E52" transform="translate(86,82)"/>
<path d="M0 0 C0.99 0 1.98 0 3 0 C2.34 2.97 1.68 5.94 1 9 C0.34 8.67 -0.32 8.34 -1 8 C-0.67 5.36 -0.34 2.72 0 0 Z " fill="#070E43" transform="translate(58,206)"/>
<path d="M0 0 C5.875 3.625 5.875 3.625 7 7 C6.01 7.495 6.01 7.495 5 8 C0 2.25 0 2.25 0 0 Z " fill="#020728" transform="translate(239,83)"/>
<path d="" fill="#000000" transform="translate(0,0)"/>
<path d="" fill="#000000" transform="translate(0,0)"/>
<path d="" fill="#000000" transform="translate(0,0)"/>
</svg>
